# xmcd
#
# Track frame offsets:
#	150
#	9771
#	23643
#	35269
#	45917
#	56664
#	69266
#	78326
#	88519
#	98049
#	112088
#	121098
#	132787
#	146885
#	157765
#
# Disc length: 2223 seconds
#
# Revision: 4
# Processed by: cddbd v1.5.2PL0 Copyright (c) Steve Scherf et al.
# Submitted via: EZCDAudioConverter 2.1.3.1
#
DISCID=aa08ad0f
DTITLE=Ralph Stanley and The Clinch Mountain Boys (feat. Jim Lauderdale) - I Fee
DTITLE=l Like Singing Today
DYEAR=2002
DGENRE=Bluegrass
TTITLE0=Ralph Stanley and The Clinch Mountain Boys (feat. Jim Lauderdale) - I Fe
TTITLE0=el Like Singing Today
TTITLE1=Ralph Stanley and The Clinch Mountain Boys (feat. Jim Lauderdale) - You'
TTITLE1=ll Find Her Name Written There
TTITLE2=Ralph Stanley and The Clinch Mountain Boys (feat. Jim Lauderdale) - Mapl
TTITLE2=e On The Hill
TTITLE3=Ralph Stanley and The Clinch Mountain Boys (feat. Jim Lauderdale) - Fly,
TTITLE3=Lovebird Fly
TTITLE4=Ralph Stanley and The Clinch Mountain Boys (feat. Jim Lauderdale) - Joy,
TTITLE4=Joy, Joy
TTITLE5=Ralph Stanley and The Clinch Mountain Boys (feat. Jim Lauderdale) - Like
TTITLE5=Him
TTITLE6=Ralph Stanley and The Clinch Mountain Boys (feat. Jim Lauderdale) - I Wi
TTITLE6=sh Today Could Be Tomorrow
TTITLE7=Ralph Stanley and The Clinch Mountain Boys (feat. Jim Lauderdale) - Anot
TTITLE7=her Sinner's Prayer
TTITLE8=Ralph Stanley and The Clinch Mountain Boys (feat. Jim Lauderdale) - High
TTITLE8=way Through My Home
TTITLE9=Ralph Stanley and The Clinch Mountain Boys (feat. Jim Lauderdale) - What
TTITLE9=About You
TTITLE10=Ralph Stanley and The Clinch Mountain Boys (feat. Jim Lauderdale) - Thi
TTITLE10=s World Is Not My Home
TTITLE11=Ralph Stanley and The Clinch Mountain Boys (feat. Jim Lauderdale) - Har
TTITLE11=bor Of Love
TTITLE12=Ralph Stanley and The Clinch Mountain Boys (feat. Jim Lauderdale) - I W
TTITLE12=ill Wait For You
TTITLE13=Ralph Stanley and The Clinch Mountain Boys (feat. Jim Lauderdale) - Who
TTITLE13=Will Sing For Me
TTITLE14=Who Thought The Railroad Wouldn't Last
EXTD=
EXTT0=
EXTT1=
EXTT2=
EXTT3=
EXTT4=
EXTT5=
EXTT6=
EXTT7=
EXTT8=
EXTT9=
EXTT10=
EXTT11=
EXTT12=
EXTT13=
EXTT14=
PLAYORDER=
